<svg width="72" height="82" viewBox="0 0 72 82" fill="none" xmlns="http://www.w3.org/2000/svg">
<g clip-path="url(#clip0_1_1710)">
<path d="M48.3197 82H23.6799C22.6731 81.3978 22.346 80.7871 22.5748 79.9479C22.7864 79.1791 23.4276 78.8011 24.5371 78.799C25.593 78.799 26.649 78.799 27.7391 78.799C28.2885 75.8094 28.8229 72.9138 29.3765 69.8986C28.9405 69.8986 28.6284 69.8986 28.3163 69.8986C21.9997 69.8986 15.6832 69.9029 9.36667 69.8922C8.62279 69.8922 7.86395 69.873 7.14145 69.7235C2.8321 68.8416 0.0104948 65.3267 0.00621963 60.8444C-0.00446826 49.7467 -0.000193103 38.6489 0.00408205 27.5511C0.00408205 22.0247 3.76408 18.2664 9.28758 18.2578C10.025 18.2578 10.7604 18.2578 11.5513 18.2578C11.5513 17.8371 11.5513 17.5211 11.5513 17.2051C11.5513 13.1499 11.5406 9.09474 11.5555 5.03958C11.5641 2.60307 12.8915 0.834948 15.1638 0.158021C15.2856 0.121719 15.3989 0.0533854 15.5165 0C29.1713 0 42.824 0 56.4789 0C59.681 1.3026 60.4462 2.46 60.4462 6.00052C60.4462 9.78875 60.4462 13.577 60.4462 17.3652C60.4462 17.6449 60.4462 17.9268 60.4462 18.2578C61.3333 18.2578 62.1007 18.2557 62.8702 18.2578C68.1928 18.2813 71.987 22.0674 71.9913 27.391C71.9998 38.5144 71.9977 49.6399 71.9848 60.7633C71.9848 61.5299 71.9207 62.3157 71.7454 63.061C70.7707 67.2251 67.3228 69.8794 62.8724 69.8901C56.4767 69.9071 50.079 69.8943 43.6833 69.8943C43.3712 69.8943 43.0592 69.8943 42.6209 69.8943C43.181 72.9309 43.7197 75.8479 44.2626 78.7947C45.5174 78.7947 46.6888 78.7712 47.858 78.8011C48.9011 78.8268 49.5467 79.5848 49.4612 80.5778C49.3992 81.3188 48.884 81.6733 48.3176 81.9936L48.3197 82ZM14.8004 11.5099V58.3011H57.1864V11.5099H14.8004ZM68.7272 61.6559H3.21472C3.31519 62.0872 3.37077 62.4268 3.47337 62.7556C4.23862 65.2199 6.33986 66.6912 9.13795 66.6933C27.0508 66.6976 44.9637 66.6955 62.8766 66.6933C63.116 66.6933 63.3554 66.6848 63.5949 66.6656C66.3224 66.4648 68.398 64.464 68.7272 61.6559ZM11.4893 58.3246V29.8489H3.24679V58.3246H11.4893ZM68.7421 58.3182V29.8424H60.4911V58.3182H68.7421ZM14.7747 8.17865H57.1864C57.2163 8.04839 57.2377 7.995 57.2377 7.94375C57.242 7.08958 57.2484 6.23755 57.2463 5.38339C57.2441 3.71562 56.7225 3.20312 55.0317 3.20312C42.3473 3.20312 29.663 3.20312 16.9786 3.20312C16.7648 3.20312 16.5511 3.19458 16.3394 3.20953C15.4866 3.27146 14.8431 3.80104 14.7918 4.65307C14.7234 5.81474 14.7747 6.98495 14.7747 8.17865ZM40.9985 78.7627C40.4727 75.9055 39.9682 73.1295 39.4317 70.3598C39.3975 70.1805 39.1068 69.9221 38.9336 69.9199C36.858 69.8901 34.7825 69.9007 32.6406 69.9007C32.0912 72.8711 31.5504 75.7923 30.9989 78.7648H41.0007L40.9985 78.7627ZM11.4914 26.5603V21.5165C6.56858 21.0552 3.29595 23.0817 3.31733 26.5603H11.4914ZM60.4825 26.5539H68.7079C68.584 24.2348 66.8568 22.1037 64.5525 21.6638C63.24 21.414 61.8698 21.4716 60.4847 21.3883V26.5539H60.4825Z" fill="#FD6F00"/>
<path d="M16.7693 38.5015C16.7693 34.314 16.7672 30.1264 16.7693 25.9389C16.7715 23.2632 18.2549 21.7748 20.9141 21.7706C23.2056 21.7663 25.4971 21.762 27.7885 21.7706C30.1484 21.7812 31.7345 23.2867 31.7409 25.6527C31.7666 34.2414 31.7666 42.83 31.7409 51.4187C31.7345 53.7869 30.1655 55.2881 27.7949 55.303C25.4244 55.318 23.0517 55.3222 20.6811 55.303C18.3169 55.2838 16.78 53.7484 16.7736 51.3845C16.7586 47.0902 16.7693 42.7959 16.7693 38.5015ZM28.5559 38.6019C28.5559 34.4165 28.5495 30.2289 28.5623 26.0435C28.5645 25.3517 28.4319 24.9438 27.5962 24.9587C25.3602 24.9993 23.1201 24.9908 20.8842 24.963C20.1788 24.9545 19.9586 25.2385 19.9607 25.9154C19.9736 34.3418 19.9757 42.7681 19.9607 51.1923C19.9607 51.9034 20.245 52.1212 20.9141 52.1148C23.0709 52.0913 25.2299 52.1084 27.3867 52.1063C28.4875 52.1063 28.5538 52.038 28.5559 50.9233C28.5581 46.8169 28.5559 42.7105 28.5559 38.604V38.6019Z" fill="black"/>
<path d="M44.7887 21.7706C46.9199 21.7706 49.0532 21.762 51.1843 21.7727C53.4929 21.7855 55.0619 23.3017 55.0918 25.6143C55.1282 28.3071 55.126 31.002 55.0918 33.6969C55.064 35.9775 53.5613 37.5257 51.272 37.5492C46.9284 37.5962 42.5849 37.5983 38.2413 37.5492C35.8921 37.5236 34.4065 35.9113 34.4001 33.5453C34.3937 30.9571 34.3937 28.3712 34.4001 25.783C34.4065 23.3401 35.9562 21.7813 38.3909 21.7706C40.5221 21.762 42.6554 21.7706 44.7866 21.7706H44.7887ZM37.6 29.3406C38.3033 28.7662 38.8591 28.2815 39.4469 27.8373C40.8855 26.7461 42.6853 26.7632 44.1004 27.8757C44.6027 28.2708 45.12 28.6594 45.5625 29.1164C46.1418 29.7143 46.6142 29.6396 47.1828 29.0993C48.4311 27.9078 49.874 27.6878 51.4601 28.3562C51.5755 28.4053 51.6995 28.4309 51.9004 28.4929C51.9004 27.5042 51.9047 26.5731 51.9004 25.6442C51.8961 25.1296 51.5947 24.9673 51.1181 24.9694C46.8835 24.9758 42.649 24.9758 38.4144 24.9694C37.8373 24.9694 37.5936 25.2193 37.6022 25.7894C37.6171 26.9084 37.6064 28.0274 37.6064 29.3406H37.6ZM44.7182 34.3631C46.7937 34.3631 48.8715 34.3824 50.9471 34.3439C51.2549 34.3375 51.8021 34.0855 51.8171 33.9104C51.8684 33.304 52.2339 32.5907 51.505 32.0953C50.4376 31.3707 49.5712 31.2782 48.9057 31.8177C47.2726 33.1481 45.4342 33.1481 43.8118 31.8156C43.3587 31.444 42.8948 31.0831 42.478 30.6731C41.9863 30.1905 41.5716 30.1692 41.0415 30.6454C40.1117 31.4803 39.1134 32.2405 38.1772 33.0712C37.9335 33.2869 37.8116 33.6435 37.6342 33.9339C37.972 34.077 38.3076 34.3396 38.6496 34.346C40.6717 34.3845 42.696 34.3653 44.7182 34.3653V34.3631Z" fill="black"/>
<path d="M44.7458 55.3073C42.6403 55.3073 40.5348 55.3158 38.4314 55.3051C35.9326 55.2923 34.4064 53.7527 34.4 51.2542C34.3957 48.6683 34.3914 46.0801 34.4 43.4941C34.4085 41.1409 35.9454 39.5522 38.2818 39.5415C42.5976 39.518 46.9155 39.518 51.2312 39.5415C53.5099 39.5543 55.0554 41.0747 55.0874 43.3489C55.1259 46.0695 55.1259 48.79 55.0874 51.5105C55.0532 53.7826 53.5013 55.2838 51.2184 55.3051C49.0595 55.3265 46.9026 55.3094 44.7437 55.3115L44.7458 55.3073ZM49.7563 52.1063C50.1881 52.1063 50.5066 52.1063 50.8251 52.1063C51.8212 52.0977 51.9003 52.023 51.9003 50.9937C51.9046 48.5658 51.8853 46.1356 51.911 43.7077C51.9195 42.988 51.6588 42.719 50.9277 42.7233C46.8214 42.7467 42.7151 42.7467 38.611 42.7233C37.85 42.719 37.5721 42.9838 37.5849 43.7504C37.6191 45.9648 37.5978 48.1792 37.5978 50.3958C37.5978 52.2066 37.6213 52.228 39.434 52.0956C39.5088 52.0892 39.5814 52.0529 39.7353 52.0059C39.7973 50.3189 39.5088 48.5359 40.8576 47.1158C42.2235 45.6765 43.9613 45.7748 45.6992 45.8196C46.721 45.8452 47.6145 46.2061 48.3925 46.8809C49.9957 48.2753 49.7584 50.1759 49.7563 52.1063ZM46.5521 52.0764C46.5521 51.3183 46.5735 50.6307 46.5457 49.9452C46.52 49.3388 46.1353 48.9629 45.5602 49.0377C44.6903 49.153 43.4825 48.4547 43.0486 49.7189C42.8092 50.4172 43.0058 51.2671 43.0058 52.0764H46.5542H46.5521Z" fill="black"/>
<path d="M39.1198 18.828C34.4556 18.828 29.7914 18.8322 25.1272 18.8258C23.9024 18.8258 23.2162 18.2663 23.1799 17.2926C23.15 16.4576 23.6865 15.7914 24.5137 15.6718C24.828 15.627 25.1507 15.6291 25.4714 15.6291C34.5882 15.6291 43.7028 15.6291 52.8195 15.6291C53.138 15.6291 53.463 15.6291 53.775 15.6761C54.5382 15.7935 55.0576 16.3957 55.0854 17.1581C55.1153 17.9653 54.6194 18.6208 53.8285 18.766C53.4907 18.828 53.1402 18.8258 52.7939 18.8258C48.2366 18.8301 43.6771 18.828 39.1198 18.8258V18.828Z" fill="#FD6F00"/>
<path d="M16.7778 17.2243C16.7778 16.3359 17.4533 15.6526 18.3383 15.6441C19.2147 15.6355 19.9329 16.321 19.9585 17.1837C19.9842 18.0678 19.2339 18.8216 18.3383 18.8109C17.464 18.8002 16.7778 18.1041 16.7778 17.2221V17.2243Z" fill="#FD6F00"/>
<path d="M53.0567 4.15125C53.4287 4.15125 53.8049 4.12349 54.1747 4.15765C54.9677 4.22812 55.5555 4.84099 55.6175 5.61828C55.6752 6.35286 55.2157 7.12802 54.4632 7.21984C53.4971 7.33515 52.4967 7.34156 51.5305 7.22625C50.7332 7.13015 50.3057 6.37208 50.3783 5.55849C50.4467 4.7812 51.0324 4.21104 51.8575 4.15338C52.2551 4.12562 52.657 4.14911 53.0567 4.14911V4.15338V4.15125Z" fill="#FD6F00"/>
<path d="M24.2102 35.07C23.5989 35.07 22.9875 35.0956 22.3783 35.0635C21.4784 35.0144 20.8136 34.314 20.8179 33.4663C20.8222 32.6185 21.487 31.9095 22.3911 31.8839C23.6374 31.8497 24.8878 31.8476 26.134 31.8839C27.0511 31.9117 27.6859 32.6057 27.6817 33.4769C27.6774 34.3461 27.0382 35.0166 26.1212 35.0614C25.4864 35.0934 24.8472 35.0678 24.2102 35.0678V35.07Z" fill="black"/>
<path d="M24.3148 42.6037C24.8727 42.6037 25.4306 42.5909 25.9885 42.6058C27.0146 42.6357 27.6922 43.2913 27.6815 44.2223C27.6708 45.1192 27.006 45.7769 26.027 45.7961C24.8321 45.8196 23.6372 45.8218 22.4423 45.7961C21.4932 45.7726 20.8028 45.0594 20.8156 44.1839C20.8284 43.3062 21.521 42.6507 22.4829 42.6058C22.5364 42.6037 22.5898 42.6058 22.6432 42.6058C23.2011 42.6058 23.759 42.6058 24.317 42.6058L24.3148 42.6037Z" fill="black"/>
<path d="M24.3063 26.5261C24.9198 26.5261 25.5333 26.4984 26.1446 26.5325C27.0467 26.5838 27.658 27.2159 27.6815 28.0594C27.705 28.9071 27.1364 29.6204 26.2387 29.6673C24.9369 29.7335 23.6265 29.7335 22.3248 29.6759C21.3928 29.6353 20.775 28.89 20.8178 28.038C20.8584 27.2031 21.4847 26.5987 22.3867 26.5261C22.4402 26.5219 22.4936 26.5197 22.5471 26.5197C23.1328 26.5197 23.7206 26.5197 24.3063 26.5197C24.3063 26.5219 24.3063 26.524 24.3063 26.5261Z" fill="black"/>
<path d="M24.2102 40.4277C23.5967 40.4277 22.9811 40.4662 22.3718 40.4192C21.427 40.3445 20.8007 39.6718 20.8157 38.8155C20.8285 37.9549 21.4783 37.2887 22.4189 37.2631C23.6437 37.2289 24.8728 37.2289 26.0976 37.2631C27.0425 37.2887 27.6752 37.9507 27.6837 38.824C27.6923 39.6718 27.113 40.2975 26.2088 40.4192C26.1297 40.4299 26.0506 40.4427 25.9694 40.4427C25.3837 40.4427 24.7959 40.4427 24.2102 40.4427C24.2102 40.4384 24.2102 40.432 24.2102 40.4277Z" fill="black"/>
<path d="M24.285 47.9849C24.8985 47.9849 25.512 47.9593 26.1233 47.9913C27.0297 48.0404 27.6474 48.6576 27.6795 49.4989C27.7158 50.3766 27.1237 51.092 26.1789 51.1368C24.9028 51.1966 23.6202 51.1966 22.3441 51.1389C21.4057 51.0962 20.7858 50.3723 20.8157 49.5182C20.8457 48.6576 21.4933 48.0298 22.4446 47.9892C23.0559 47.9614 23.6715 47.9849 24.2829 47.9871L24.285 47.9849Z" fill="black"/>
</g>
<defs>
<clipPath id="clip0_1_1710">
<rect width="72" height="82" fill="white"/>
</clipPath>
</defs>
</svg>
